<svg id="Capa_1" data-name="Capa 1" xmlns="http://www.w3.org/2000/svg" viewBox="0 0 738.5 271.82"><defs><style>.cls-1{fill:#03a8f3;}.cls-2{fill:#abe1fb;}.cls-3{fill:#ade900;}.cls-4{fill:#0287d0;}</style></defs><title>logo</title><path class="cls-1" d="M497,145.41Q491.1,174,485.23,202.6c-1.24,6-2.42,12.06-3.79,18.06-1.27,5.56-7.9,9.48-13.37,8.06a3,3,0,0,1-2.28-2.31,342.38,342.38,0,0,1-10-46.76c-1.53-10.92-2.87-21.86-3.91-32.85-.9-9.44-1.37-18.89-1.33-28.37,0-3.05,1.27-5.09,4.06-6.16,3.94-1.53,7.89-3.08,12.48-3.35-2.25,28.39,2.66,56.22,6,84.55a11.58,11.58,0,0,0,1.62-4.37c.34-1.39.5-2.82.74-4.24,3.68-21.61,9.43-42.74,15.16-63.86,1.86-6.84,6.79-10,13.79-8.88,2.2.34,3.15,1.4,3.3,3.53.46,6.65,1.36,13.26,2,19.9.77,7.42,1.71,14.81,2.68,22.2,1.24,9.45,2.54,18.88,4.18,28.26.66,3.8,1.27,7.61,1.88,11.43a5.77,5.77,0,0,0,1.22,2.9c.64-3.05,1.27-5.83,1.8-8.63,2.5-13.39,4.44-26.88,5.93-40.42,1.13-10.35,1.84-20.74,2.74-31.11.11-1.29.23-2.57.36-3.86a3.75,3.75,0,0,1,1.87-3,34.77,34.77,0,0,1,9.54-4.41c4.23-1.1,6.29.68,5.57,4.9-2.69,15.82-4.47,31.78-7.42,47.56a623.63,623.63,0,0,1-14.47,61.86c-1.51,5.15-8.25,7.79-13,5.21-2.5-1.36-3.18-3.84-3.54-6.32-1.95-13.69-3.72-27.41-5.71-41.1-1.67-11.47-3.06-23-5.23-34.37-.11-.56-.29-1.11-.43-1.67C497.19,144.67,497.13,145.14,497,145.41Z"/><path class="cls-1" d="M321.18,161.54q-.48,22.88-.94,45.76c-.11,5,.2,5.36,5.08,6.54a26.75,26.75,0,0,1,3.27,1A8.47,8.47,0,0,1,334,225.08c-.46,1.86-1.91,2.19-3.54,2a85.16,85.16,0,0,0-15.31-.39,58.74,58.74,0,0,0-17,3.28c-3.66,1.36-4.21,1-5.22-2.74a44.41,44.41,0,0,1-1-5.92c-.81-6.05.94-6.41,5.81-7.23,1.06-.17,2.14-.24,3.19-.43,2.84-.51,4.12-1.95,4.25-4.8.82-17.75,1.47-35.5,1.24-53.28-.11-7.76-.5-15.52-.89-23.28-.07-1.49-.28-3-.38-4.49-.16-2.53-.86-3.05-3.28-2.37-2.2.61-4.35,1.4-6.55,2-2.56.73-3.55.12-3.88-2.44a40.07,40.07,0,0,1-.42-5.79c.05-5.14,2.76-8,7.87-8.41a242.38,242.38,0,0,1,34.3,0c2.84.17,3.93,1.43,3.92,4.28,0,2.16.06,4.32,0,6.48s-1,3.08-3.21,3.15c-3,.1-5.85-.69-8.76-1.08s-3.95.24-4,3.34c0,5.4,0,10.8,0,16.2v18.36Z"/><path class="cls-1" d="M625.76,186.33c.11,7.31-.32,14.65,1.55,21.84a19,19,0,0,0,1.48,3.79c.7,1.4.53,2.41-1,3.13a22.72,22.72,0,0,1-9.93,2.48,4.12,4.12,0,0,1-4.12-2.85,15.8,15.8,0,0,1-1-5.47,203.38,203.38,0,0,1,.76-22.62c.56-6.66,1-13.34,1.35-20,.34-6,.63-11.92.82-17.88.12-3.62-.68-4.3-4.21-4.25-2.52,0-5,0-7.55,0a5.45,5.45,0,0,1-5.26-3.08c-.75-1.47-1.46-3-2.07-4.49-.78-2-.47-2.41,1.69-2.47,4.75-.13,9.49-.21,14.24-.3,2.53,0,3.23-.68,3.16-3.18a71.49,71.49,0,0,0-.33-7.73c-.64-4.65,1-7.16,5.33-8.85,1.87-.73,3.79-1.35,5.71-1.94,2.39-.73,3.61.13,3.58,2.63-.07,4.82-.26,9.64-.39,14.46-.1,3.63,0,3.84,3.71,3.7,5.68-.2,11.35-.49,17-.8,7.47-.41,13.15,2.83,17.66,8.52a5.5,5.5,0,0,1,.89,1.46c.57,1.65-.32,2.76-2,2.49-11.94-1.86-23.95-.89-35.94-.9-1.45,0-2.07.81-2.18,2.13-.45,5.87-.81,11.75-1.36,17.61C626.62,171.28,626,178.79,625.76,186.33Z"/><path class="cls-1" d="M405.78,188c2.09-5.1,4.11-9.9,6-14.74a109.85,109.85,0,0,1,6.51-13.08c1.8-3.24,4-4.05,7.58-3.18,6.51,1.56,13,6.32,12.79,16-.23,8.56-1.05,17.05-1.71,25.57A25.71,25.71,0,0,0,439.33,212c.94,1.93.32,2.91-1.47,3.65-2.53,1.05-5.05,2.08-7.87,1.94a5.32,5.32,0,0,1-5.29-3.94c-1.32-3.63-.93-7.38-.7-11.09.3-4.8.79-9.58,1.16-14.37.33-4.28,1-8.54.95-12.85a8.61,8.61,0,0,0-1.26-4.49c-1.24-2-3.21-1.92-4.35.14-6.26,11.35-9.94,23.58-12.13,36.28-1,5.69-2.89,8.08-8.23,9.15a5.19,5.19,0,0,1-5.86-2.62,15.6,15.6,0,0,1-1.93-7.17c-.64-12-.46-24-.46-36.05,0-2-.53-3.94-.15-6a4.24,4.24,0,0,1,2.81-3.48c2.87-1.1,5.77-2.15,8.72-3s4.62.67,4.17,3.92c-1.09,7.88-1.39,15.84-2.11,23.76A2.77,2.77,0,0,0,405.78,188Z"/><path class="cls-1" d="M582.66,203.69a33.1,33.1,0,0,1-6.14,7.95c-9.52,8.58-22,5.86-26.5-6.11-4.63-12.29-2.31-23.93,4.73-34.66A39.67,39.67,0,0,1,574.62,155c3.63-1.33,6.66,0,7.92,3.35.67,1.78.34,2.91-1.53,3.77-11.56,5.35-17.56,14.68-19.36,27.08-.51,3.49-.6,6.86.67,10.16,2.07,5.39,6.52,6.6,10.88,2.84a28.43,28.43,0,0,0,9.65-17.09c1.39-8,1.7-16.12,2.94-24.13.69-4.45,4.12-7.09,8.68-7,1.85.06,2.74.75,2.66,2.75q-.82,19.62-1.53,39.24c-.12,3.31-.16,6.62-.18,9.93a6.4,6.4,0,0,0,2.61,5.41c2.15,1.65,2,2.54-.24,4a9.42,9.42,0,0,1-13.13-3.7C583.48,209.25,583.32,206.59,582.66,203.69Z"/><path class="cls-1" d="M711.38,169.32c1.39-2.24,2.72-4.52,4.18-6.71a21.6,21.6,0,0,1,9.11-8c4.13-1.84,7.63-1,10.45,2.36,6.94,8.31,2.66,21.27-8,24-.18-2.65.72-5.27.09-7.94-.51-2.13-1.46-3.68-3.61-4.4s-3.82.16-5.2,1.67c-4.4,4.8-6.55,10.7-8.17,16.86a54.8,54.8,0,0,0-.92,23.29c.71,4.21-1.26,6.29-6.59,7-3.24.44-5.37-1.44-5.88-5-1.51-10.47-.57-20.94-.12-31.42.21-4.74.34-9.5.19-14.24-.22-6.63.77-8.3,7.08-10.45a28.08,28.08,0,0,1,3.93-1c2.42-.46,3.17.12,3.14,2.64-.05,3.09-.3,6.18-.41,9.26C710.67,167.89,710.28,168.78,711.38,169.32Z"/><path class="cls-2" d="M497,145.41c0-.45-.18-1,.42-1.15.45-.08.32.43.32.73Z"/><path class="cls-1" d="M640.69,189.78c.07-12.23,4-23,12.65-31.73,5.65-5.72,12.55-8.65,20.69-7.18,6.32,1.14,10.66,6.67,11.21,13.08,1.16,13.36-9.1,25.3-17.68,29a15.79,15.79,0,0,1-12.16.33c-1.31-.49-1.72-.32-1.46,1.1.18,1,.17,2,.35,3,1.54,8.57,9.38,12.87,17.53,9.61a21,21,0,0,0,10.71-9.87c.28-.5.49-1,.78-1.53a1.51,1.51,0,0,1,2-.85,1.74,1.74,0,0,1,1.19,2.05c-1.76,10.3-8.39,18.35-18.1,20.56-11.29,2.58-23.71-3.26-26.75-17.72A43.27,43.27,0,0,1,640.69,189.78Zm33.29-29c-1-3.42-2.81-4-5.64-1.8-8.36,6.54-12.66,15.37-14.5,25.6-.21,1.16,0,1.57,1.3,1.2a36.6,36.6,0,0,0,10.29-4.22c5.79-3.69,9.08-8.85,9.07-15.86A19.32,19.32,0,0,0,674,160.8Z"/><path class="cls-1" d="M359.77,157.74c.83-.55,1.66-1.12,2.51-1.65,4.24-2.68,7.27-2.29,10.7,1.38a31.12,31.12,0,0,1,7.13,12.41c3.77,12.6,3.89,25-2.92,36.74a21.73,21.73,0,0,1-24.69,10.44,16.91,16.91,0,0,1-9.24-6.72c-5.76-7.84-7.37-16.66-6.33-26.21a45.73,45.73,0,0,1,7.44-21,28.73,28.73,0,0,1,6.62-7C355.3,152.89,356.84,153.17,359.77,157.74ZM355,166.13a16.73,16.73,0,0,0-3.26,6.06,58,58,0,0,0-2.44,21.7,24.07,24.07,0,0,0,3.79,11.3c3.44,5.33,8.64,5.51,12.17.29,8.27-12.27,8.12-25.24,2.85-38.52-.87-2.19-2.7-2.71-4.79-1.57a15,15,0,0,0-2.58,1.93c-2,1.78-3.25,4.16-4.83,6.55C354.62,171.36,355.53,168.79,355,166.13Z"/><path class="cls-1" d="M110.46,86.74a24.91,24.91,0,0,0,2.33-10.5c.2-16.91.39-33.64.59-50.36,0-3.89.19-4.08,4.27-4.08,3.12.19,6.23,0,9.34,0,1.75,0,2.33.58,2.33,2.33,0,20-.39,39.86-.78,59.89a9.72,9.72,0,0,1-1,4.08c-13.42,27.81-30.72,63.39-44.33,91.2L72.15,164.52Z"/><path class="cls-1" d="M154.21,24.72c0-2.14.78-3.12,2.92-2.92a58.91,58.91,0,0,0,10.11-.2c2.33-.19,2.91.39,2.91,2.73.39,18.66.39,37.33,1.17,56a10.8,10.8,0,0,0,1.36,5.44c10.89,22.75,22,45.5,32.86,68.25,1.56,3.11,1.36,3.7-1.16,6-3.11,3.11-6.23,6.22-9.14,9.72L162,101.33a58.61,58.61,0,0,1-7-28Z"/><path class="cls-1" d="M180.46,0c6.22,0,9.92,4.28,9.14,10.11-.58,4.47-4.28,7.39-9.53,7.39l-76.61-.19a8.61,8.61,0,0,1-8.17-4.67,8.91,8.91,0,0,1,.78-9.53A6.68,6.68,0,0,1,102.29,0Z"/><path class="cls-3" d="M13.24,191.35C54.46,231.41,102.88,254,161,251.63c.38,1,0,1-.2,1.17-13.61,8-28,14.39-43.55,17.5a71.24,71.24,0,0,1-57.95-13.22c-14-10.5-24.5-24.31-33.44-39.28a170.33,170.33,0,0,1-12.06-24.7Z"/><path class="cls-1" d="M130.1,226.35c6.8-.19,19.83,0,26.83,0,10.89.2,22,.2,33.06.2a6.75,6.75,0,0,1,4.86,1.94L206.71,239c1.36,2.73.58,3.89-2.53,3.89l-53.86-.58Z"/><path class="cls-1" d="M256.68,126.8a297.16,297.16,0,0,1,10.11,48.8c.59,4.87.78,9.73,1,14.59,0,2.91-.59,3.69-3.5,3.5a98.9,98.9,0,0,0-20,1,61.88,61.88,0,0,0-22,7A35.47,35.47,0,0,0,205,226.74c-.39,1.95-.58,3.89-1,5.84a42.08,42.08,0,0,1-9.34-10.11c-5.25-7.39-8.55-15.17-7.77-24.5a45.8,45.8,0,0,1,7-19.84A88.84,88.84,0,0,1,213.52,156,247.25,247.25,0,0,1,256.68,126.8Z"/><path class="cls-4" d="M263.68,199.33a130,130,0,0,1,21.39,1.36c1.36.19,1.95.78,1.56,1.94-6.23,15.36-12.45,30.53-22.95,43.56a50.13,50.13,0,0,1-7.78,8,25.13,25.13,0,0,1-28.19,4.08,46.23,46.23,0,0,1-8.56-4.86,17.74,17.74,0,0,1-7.77-11.86c-1-5.83-1.95-11.86-.59-17.89A25.64,25.64,0,0,1,225,205.94a61.62,61.62,0,0,1,21.19-6A129.07,129.07,0,0,1,263.68,199.33Z"/><path class="cls-3" d="M72.93,164.91c3.31,5.64,19.64,24.89,24.5,30.33a328.78,328.78,0,0,0,33.06,31.7c7,5.64,14.19,11.28,21.19,16.91,1.56,1.37,3.31,2.73,4.86,4.09l5.25,4.08L148,250.47c-4.47-.59-9.14-1.17-13.61-2.14s-8.95-1.75-13.42-2.73a194.83,194.83,0,0,1-45.31-15.55C41.24,212.94,18.88,185.72,8,149a196.39,196.39,0,0,1-6.81-35.39,223.6,223.6,0,0,1-.78-36,324.93,324.93,0,0,1,10.5-71c0-.19.2-.19.2-.39,1,4.86,1.75,9.53,2.72,14.2s1.95,9.33,3.11,14c9.72,41.61,24.89,81.08,47.45,117.64,2.72,4.47,5.64,8.75,8.55,12.83"/></svg>
